# xmcd CD database file
#
# Track frame offsets:
#	150
#	12957
#	28192
#	40948
#	54099
#	67310
#	82843
#	98093
#	115013
#	131688
#	146751
#	163459
#	178773
#	194454
#	208265
#	222717
#	237105
#	250711
#	266126
#	280434
#
# Disc length: 3935 seconds
#
# Revision: 3
# Processed by: cddbd v1.5.2PL0 Copyright (c) Steve Scherf et al.
# Submitted via: CDex 1.50
#
DISCID=360f5d14
DTITLE=Various Artist - Truck Grand-Prix Vol. 3 [CD2v2)
DYEAR=2009
DGENRE=Country
TTITLE0=Tom Astor - Wir werden nicht älter, wir werden nur noch besser
TTITLE1=Truck Stop - Das anloge Mädchen
TTITLE2=Katja Kaye - Zieh deine Schuhe aus
TTITLE3=Nashville Music Company - Wertvolle Fracht
TTITLE4=Miss Behavin - Outta Town Boogie
TTITLE5=Slow Horses - Two Hearts
TTITLE6=Big Dig - Bobby Brown
TTITLE7=Dagmar (Lay D.) - Ich würd' es trotzdem wieder tun
TTITLE8=Maverick's Country Music Show - Es geht mir gut
TTITLE9=Dirk Daniels and Lnda Feller - Mit mir da machst du keinen Fehler 
TTITLE10=Gunter Gabriel - Fahrer, du bist Deutschlands bester Mann
TTITLE11=Honky Tonk Heroes - I Can't Dance
TTITLE12=Two Riders Band - I Love You, egal was passiert
TTITLE13=Mario Scherzer  - Bleib hier
TTITLE14=Sundance - Trucker auf dem Highway
TTITLE15=Kim West - Lass uns tanzen
TTITLE16=Boppin B - Take Me Away
TTITLE17=KarenMCDawn - Cajun Hoedown
TTITLE18=Johnny Lorenz - Be My Country Girl
TTITLE19=Gunter Gabriel - Die gelben Engel vom ADAC (Bonustrack)
EXTD=YEAR: 2009
EXTT0=
EXTT1=
EXTT2=
EXTT3=
EXTT4=
EXTT5=
EXTT6=
EXTT7=
EXTT8=
EXTT9=
EXTT10=
EXTT11=
EXTT12=
EXTT13=
EXTT14=
EXTT15=
EXTT16=
EXTT17=
EXTT18=
EXTT19=
PLAYORDER=
